<?xml version="1.0" encoding="UTF-8"?>
<svg width="41px" height="32px" viewBox="0 0 41 32" version="1.1" xmlns="http://www.w3.org/2000/svg" xmlns:xlink="http://www.w3.org/1999/xlink">
    <!-- Generator: Sketch 51.2 (57519) - http://www.bohemiancoding.com/sketch -->
    <title>arrow copy</title>
    <desc>Created with Sketch.</desc>
    <defs>
        <polygon id="path-1" points="0 0 41 0 41 32 0 32"></polygon>
    </defs>
    <g id="Page-1" stroke="none" stroke-width="1" fill="none" fill-rule="evenodd">
        <g id="Regional-1" transform="translate(-130.000000, -482.000000)">
            <g id="arrow-copy" transform="translate(150.500000, 498.000000) rotate(-180.000000) translate(-150.500000, -498.000000) translate(130.000000, 482.000000)">
                <mask id="mask-2" fill="white">
                    <use xlink:href="#path-1"></use>
                </mask>
                <g id="Clip-2"></g>
                <path d="M40.7939839,15.091222 C40.683685,14.7607573 40.4614243,14.4302926 40.2397179,14.2099828 L26.9373318,0.82616179 C26.3830657,0.275387263 25.6625198,0 24.9419739,0 C24.2219822,0 23.6117353,0.330464716 23.1683224,0.82616179 C22.6700372,1.32185886 22.3929041,1.9827883 22.3929041,2.75387263 C22.3929041,3.46987952 22.6700372,4.1858864 23.1683224,4.68158348 L31.9257266,13.383821 L2.71590382,13.383821 C1.21993966,13.383821 0,14.5404475 0,16.0826162 C0,17.6247849 1.16395878,18.7814114 2.71590382,18.7814114 L31.9817074,18.7814114 L23.1683224,27.3184165 C22.6700372,27.8141136 22.3929041,28.475043 22.3929041,29.2461274 C22.3929041,30.0172117 22.6140563,30.6781411 23.1683224,31.1738382 C23.6677161,31.6695353 24.3877078,32 25.1082537,32 L25.1642346,32 C25.8847805,32 26.4939189,31.6695353 26.9373318,31.1738382 L40.2397179,17.9552496 C40.2956987,17.9001721 40.3505711,17.7900172 40.4065519,17.7349398 C40.4065519,17.6798623 40.4614243,17.6798623 40.5168509,17.5697074 C41.071117,16.8537005 41.1270979,15.8623064 40.7939839,15.091222" id="Fill-1" fill="#c03" mask="url(#mask-2)"></path>
            </g>
        </g>
    </g>
</svg>
