<svg xmlns="http://www.w3.org/2000/svg" xmlns:xlink="http://www.w3.org/1999/xlink" width="41" height="32" viewBox="0 0 41 32"><defs><path id="9x5ha" d="M141.8 28.1a2.39 2.39 0 0 0-.56-.89l-13.3-13.38a2.82 2.82 0 0 0-2-.83c-.72 0-1.33.33-1.77.83-.5.5-.78 1.15-.78 1.92 0 .72.28 1.44.78 1.93l8.76 8.7h-29.21a2.68 2.68 0 0 0-2.72 2.7c0 1.54 1.16 2.7 2.72 2.7h29.26l-8.81 8.54c-.5.5-.78 1.16-.78 1.93s.22 1.43.78 1.92c.5.5 1.22.83 1.94.83h.05c.72 0 1.33-.33 1.78-.83l13.3-13.21c.06-.06.11-.17.17-.23 0-.05.05-.05.1-.16.56-.72.62-1.7.28-2.48"/></defs><g><g clip-path="url(#clip-252C9DE7-5D7F-4ED5-8C10-8B99B0271AF0)" transform="translate(-101 -13)"><use fill="#c03" xlink:href="#9x5ha"/></g></g></svg>