
<svg width="24px" height="31px" viewBox="0 0 24 31" version="1.1" xmlns="http://www.w3.org/2000/svg" xmlns:xlink="http://www.w3.org/1999/xlink">
    <defs>
        <polygon id="path-1" points="6.66666667e-05 0.22 23.8553333 0.22 23.8553333 4 6.66666667e-05 4"></polygon>
        <polygon id="path-3" points="0.531934483 0.6357 18.9290122 0.6357 18.9290122 25.556635 0.531934483 25.556635"></polygon>
    </defs>
    <g id="Page-2" stroke="none" stroke-width="1" fill="none" fill-rule="evenodd">
        <g id="Option-1" transform="translate(-121.000000, -653.000000)">
            <g id="Group-5" transform="translate(121.000000, 653.000000)">
                <g id="Group">
                    <g id="Group-3" transform="translate(0.000000, 27.000000)">
                        <mask id="mask-2" fill="white">
                            <use xlink:href="#path-1"></use>
                        </mask>
                        <g id="Clip-2"></g>
                        <path d="M21.9654,4 L1.89006667,4 C0.846733333,4 6.66666667e-05,3.15333333 6.66666667e-05,2.11 C6.66666667e-05,1.06666667 0.846733333,0.22 1.89006667,0.22 L21.9654,0.22 C23.0080667,0.22 23.8554,1.06666667 23.8554,2.11 C23.8554,3.15333333 23.0087333,4 21.9654,4" id="Fill-1" fill="#CC0033" mask="url(#mask-2)"></path>
                    </g>
                    <g id="Group-6" transform="translate(2.000000, 0.000000)">
                        <mask id="mask-4" fill="white">
                            <use xlink:href="#path-3"></use>
                        </mask>
                        <g id="Clip-5"></g>
                        <path d="M18.3857103,15.128035 C17.6604345,14.407835 16.4837448,14.408485 15.758469,15.127385 L11.5876414,19.265285 L11.5876414,2.477735 C11.5876414,1.460485 10.7555724,0.635635 9.73022759,0.635635 C8.70488276,0.635635 7.87281379,1.460485 7.87281379,2.477735 L7.87281379,19.264635 L3.70264138,15.127385 C2.97671034,14.408485 1.80133103,14.408485 1.0754,15.127385 C0.35077931,15.846935 0.35077931,17.013685 1.0754,17.733885 L8.37336552,24.974235 C8.42184828,25.025585 9.00953793,25.556635 9.73022759,25.556635 C10.4502621,25.556635 10.9809517,25.085385 11.0936414,24.966435 L18.3844,17.733885 C19.110331,17.014335 19.110331,15.847585 18.3857103,15.128035" id="Fill-4" fill="#CC0033" mask="url(#mask-4)"></path>
                    </g>
                </g>
            </g>
        </g>
    </g>
</svg>
