<?xml version="1.0" encoding="UTF-8"?>
<svg width="27px" height="28px" viewBox="0 0 27 28" version="1.1" xmlns="http://www.w3.org/2000/svg" xmlns:xlink="http://www.w3.org/1999/xlink">
    <!-- Generator: Sketch 51.1 (57501) - http://www.bohemiancoding.com/sketch -->
    <title>i_filter</title>
    <desc>Created with Sketch.</desc>
    <defs>
        <polygon id="path-1" points="0 0 26.99994 0 26.99994 7.78458462 0 7.78458462"></polygon>
    </defs>
    <g id="Page-2" stroke="none" stroke-width="1" fill="none" fill-rule="evenodd">
        <g id="Option-1" transform="translate(-121.000000, -1193.000000)">
            <g id="i_filter" transform="translate(121.000000, 1193.000000)">
                <path d="M25.6817501,12.3149606 L23.0746179,12.3149606 C22.5352113,10.9645669 21.1564279,10 19.5082409,10 C17.8600539,10 16.4818699,10.9645669 15.9424633,12.3149606 L1.25861552,12.3149606 C0.569373689,12.3149606 0,12.8385827 0,13.5 C0,14.1614173 0.569373689,14.6850394 1.28858256,14.6850394 L15.9724303,14.6850394 C16.5115373,16.0354331 17.8903206,17 19.5385076,17 C21.1866946,17 22.5651783,16.0354331 23.1042853,14.6850394 L25.7117171,14.6850394 C26.430926,14.6850394 27,14.1614173 27,13.5 C26.9703326,12.8385827 26.4006593,12.3149606 25.6817501,12.3149606" id="Fill-1" fill="#000000"></path>
                <path d="M25.71,22.6559153 L10.77,22.6559153 C10.23,21.1067631 8.85,20 7.2,20 C5.55,20 4.17,21.1067631 3.63,22.6559153 L1.29,22.6559153 C0.57,22.6559153 0,23.2567295 0,23.984031 C0,24.7432705 0.57,25.3437685 1.29,25.3437685 L3.66,25.3437685 C4.17,26.8932369 5.55,28 7.2,28 C8.85,28 10.23,26.8932369 10.77,25.3437685 L25.71,25.3437685 C26.4297,25.3437685 27,24.7432705 27,23.984031 C27,23.2567295 26.4297,22.6559153 25.71,22.6559153" id="Fill-3" fill="#000000"></path>
                <g id="Group-7">
                    <mask id="mask-2" fill="white">
                        <use xlink:href="#path-1"></use>
                    </mask>
                    <g id="Clip-6"></g>
                    <path d="M1.28994,5.19996923 L9.92994,5.19996923 C10.46994,6.70766154 11.84994,7.78458462 13.49994,7.78458462 C15.14994,7.78458462 16.52994,6.70766154 17.07024,5.19996923 L25.70994,5.19996923 C26.42994,5.19996923 26.99994,4.61535385 26.99994,3.87689231 C26.99994,3.13843077 26.42994,2.55381538 25.70994,2.55381538 L17.07024,2.55381538 C16.52994,1.07689231 15.14994,-3.07692308e-05 13.49994,-3.07692308e-05 C11.84994,-3.07692308e-05 10.46994,1.07689231 9.92994,2.58458462 L1.28994,2.58458462 C0.56994,2.58458462 -6e-05,3.1692 -6e-05,3.90766154 C-6e-05,4.61535385 0.56994,5.19996923 1.28994,5.19996923" id="Fill-5" fill="#000000" mask="url(#mask-2)"></path>
                </g>
            </g>
        </g>
    </g>
</svg>