<?xml version="1.0" encoding="UTF-8"?>
<svg width="72px" height="72px" viewBox="0 0 72 72" version="1.1" xmlns="http://www.w3.org/2000/svg" xmlns:xlink="http://www.w3.org/1999/xlink">
    <!-- Generator: Sketch 48.2 (47327) - http://www.bohemiancoding.com/sketch -->
    <title>Group 3</title>
    <desc>Created with Sketch.</desc>
    <defs></defs>
    <g id="Supporting-GFX-/-!Logo-/-Full-Logo---Desktop-(&gt;1080)" stroke="none" stroke-width="1" fill="none" fill-rule="evenodd">
        <g id="Icon-/-Logo-/-Full">
            <g id="Group-3">
                <path d="M35.6047987,0.277560644 C47.2678091,-0.376424544 61.1909396,8.89468035 64.3933255,14.676766 C59.130145,14.5087396 55.4286217,21.5856171 55.4286217,21.5856171 C54.6066101,22.8178109 49.5888799,32.6078209 49.5888799,32.6078209 C38.8944924,54.981692 20.6356213,30.9621503 20.0574127,28.9886636 C19.4841461,27.0135294 10.4354292,15.6602148 6.62847759,15.246738 C13.8420825,4.46668995 27.2150088,0.0370522373 35.6047987,0.277560644 Z" id="Fill-1" fill="#00529F"></path>
                <path d="M1.43497858,25.8704556 C-0.457789632,32.599749 -1.90248739,44.4489064 6.8151187,56.8762723 C15.5360194,69.2970489 29.1889898,71.7597891 35.6052929,71.5999993 C42.0232432,71.4319728 54.1952749,70.4468768 64.5601988,56.792259 C74.434222,43.7817426 71.314202,24.4900032 67.6373886,19.9269328 C65.1087557,25.5245188 50.8775767,41.4096049 43.3114458,42.5594328 C44.6523625,43.4654576 48.9320943,42.8081778 48.9320943,42.8081778 C48.9320943,42.8081778 51.9746904,42.9729096 52.2646183,44.3731297 C49.7557532,44.1260321 40.8684734,46.753504 38.8933393,47.9082739 C36.9214998,49.0613964 28.8414057,54.3344608 23.9175727,49.8026894 C26.2304069,49.7170289 33.5412036,47.2905297 34.5740719,45.5443727 C31.1624766,46.2626033 20.3066519,43.4654576 15.12419,38.3637142 C9.94337531,33.2652654 5.43301902,27.3563363 1.43497858,25.8704556" id="Fill-3" fill="#0098D7"></path>
                <path d="M25.0306654,23.9142656 L26.9497907,23.9142656 L26.9497907,16.2987152 C26.9497907,15.2839674 25.9894043,14.4850182 24.712733,14.4850182 L20.7707014,14.4850182 L20.7707014,23.9142656 L22.6881794,23.9142656 L22.6881794,16.2987152 L24.4442202,16.2987152 C24.8181613,16.2987152 25.0306654,16.562286 25.0306654,16.987294 C25.0306654,17.4139494 25.0306654,16.987294 25.0306654,16.987294 L25.0306654,23.9142656 Z" id="Fill-5" fill="#FEFEFE"></path>
                <path d="M30.8936343,22.1592132 L32.2773813,22.1592132 C32.2773813,22.1592132 32.7040367,21.8907004 32.7040367,21.5167592 L32.7040367,16.9882824 C32.7040367,16.9882824 32.7040367,16.2980563 32.2246672,16.2980563 C32.2246672,16.2980563 31.1077857,16.1415611 30.8936343,16.2980563 C30.5180459,16.5616271 30.358256,16.4216051 30.358256,16.9882824 L30.358256,21.5167592 C30.5180459,22.0999097 30.7321972,22.1592132 30.8936343,22.1592132 M28.440778,22.1592132 L28.440778,16.9882824 L28.440778,16.2980563 C28.440778,14.9620815 29.7190967,14.4860066 30.358256,14.4860066 L32.7040367,14.4860066 C33.664423,14.4860066 34.6215146,15.1778801 34.6215146,16.2980563 L34.6215146,22.1592132 C34.6215146,22.9038009 33.5573473,23.9136067 32.7040367,23.9136067 L30.358256,23.9136067 C29.6136684,23.9136067 28.440778,23.0635907 28.440778,22.1592132" id="Fill-7" fill="#FEFEFE"></path>
                <path d="M40.3793847,16.987953 C40.3793847,16.987953 40.3793847,16.2977268 39.6825693,16.2977268 L38.6711161,16.2977268 C38.3498891,16.2977268 38.0336041,16.6173065 38.0336041,16.987953 L38.0336041,18.5298425 L40.3793847,18.5298425 L40.3793847,16.987953 Z M36.1128315,23.9149246 L36.1128315,16.2977268 C36.1128315,15.1231892 37.3911502,14.4856771 38.0336041,14.4856771 L40.3793847,14.4856771 C41.3364764,14.4856771 42.2919208,15.1231892 42.2919208,16.2977268 L42.2919208,23.9149246 L40.3793847,23.9149246 L40.3793847,20.3484814 L38.0336041,20.3484814 L38.0336041,23.9149246 L36.1128315,23.9149246 Z" id="Fill-9" fill="#FEFEFE"></path>
                <path d="M48.0514382,16.987953 C48.0514382,16.987953 48.0514382,16.2977268 47.3579174,16.2977268 L46.3415223,16.2977268 C46.0235899,16.2977268 45.7040102,16.6173065 45.7040102,16.987953 L45.7040102,18.5298425 L48.0514382,18.5298425 L48.0514382,16.987953 Z M43.7865323,23.9149246 L43.7865323,16.2977268 C43.7865323,15.1231892 45.0632036,14.4856771 45.7040102,14.4856771 L48.0514382,14.4856771 C49.0085299,14.4856771 49.9656215,15.1231892 49.9656215,16.2977268 L49.9656215,23.9149246 L48.0514382,23.9149246 L48.0514382,20.3484814 L45.7040102,20.3484814 L45.7040102,23.9149246 L43.7865323,23.9149246 Z" id="Fill-11" fill="#FEFEFE"></path>
                <path d="M64.339623,14.6143327 C59.0780897,14.4776053 55.4638743,21.5198891 55.4638743,21.5198891 C54.6369208,22.7586722 49.6027174,32.5816285 49.6027174,32.5816285 C38.8704416,55.0329236 20.5489724,30.9293687 19.9674692,28.9492927 C19.4024392,27.0005156 10.5925833,15.9288923 6.67526141,15.1958359 C4.02472698,18.8594708 2.69204684,21.6401433 1.43514332,25.8704556 C5.44636229,27.3612782 9.8199912,33.242203 15.0189264,38.3587722 C20.2178615,43.4753415 31.1132218,46.2856658 34.5363483,45.5641405 C33.4985381,47.3152394 26.1630316,49.7499752 23.8419608,49.8356357 C28.7839144,54.3838803 36.8903655,49.0926954 38.8704416,47.9346309 C40.852165,46.7765665 49.7690965,44.1392106 52.2878455,44.3879556 C51.9979176,42.9827935 48.9437903,42.8180617 48.9437903,42.8180617 C48.9437903,42.8180617 44.6492326,43.4753415 43.3033739,42.5676694 C50.8958619,41.4145469 65.1204516,25.649715 67.6589684,20.0340084 C67.708388,20.0966065 67.6062543,19.9648211 67.6589684,20.0340084 C66.6738724,18.0456958 65.6657138,16.3703735 64.339623,14.6143327" id="Fill-13" fill="#FEFEFE"></path>
                <path d="M64.339623,14.6143327 C64.339623,14.6143327 66.1006057,16.0886822 67.703446,20.0241245 L64.2276053,18.9319528 L64.339623,14.6143327 Z" id="Fill-15" fill="#FEFEFE"></path>
            </g>
        </g>
    </g>
</svg>