<?xml version="1.0" encoding="UTF-8"?>
<svg width="66px" height="78px" viewBox="0 0 66 78" version="1.1" xmlns="http://www.w3.org/2000/svg" xmlns:xlink="http://www.w3.org/1999/xlink">
    <!-- Generator: Sketch 51.2 (57519) - http://www.bohemiancoding.com/sketch -->
    <title>Page 1</title>
    <desc>Created with Sketch.</desc>
    <defs>
        <polygon id="path-1" points="0 0 65.3419 0 65.3419 77.9998 0 77.9998"></polygon>
    </defs>
    <g id="Page-1" stroke="none" stroke-width="1" fill="none" fill-rule="evenodd">
        <g id="Regional-2" transform="translate(-31.000000, -553.000000)">
            <g id="map-nav" transform="translate(31.000000, 553.000000)">
                <g id="Page-1">
                    <mask id="mask-2" fill="white">
                        <use xlink:href="#path-1"></use>
                    </mask>
                    <g id="Clip-2"></g>
                    <path d="M65.3419,10.1748 L64.0729,12.1288 L63.9199,12.6328 L64.2599,13.5458 L64.0849,14.3328 L63.2389,14.7428 L63.2389,15.1208 L62.8389,15.3098 L62.8389,15.7828 L62.6539,15.9088 L62.9629,16.3188 L63.4569,17.1058 L63.4569,17.6418 L63.1789,18.2088 L63.4569,18.3978 L64.0439,19.9098 L63.9499,20.3188 L64.1359,20.6298 L63.4559,21.0558 L62.6519,20.0658 L62.0899,20.4448 L61.3519,20.7588 L60.6109,19.7508 L59.7769,19.5938 L59.7769,19.0898 L59.0649,18.8698 L58.6639,18.1448 L58.9399,17.7668 L58.6639,17.4518 L58.3539,17.9558 C57.3689,17.1298 57.5019,17.3078 56.5609,16.1288 L56.7119,15.7188 L56.1529,15.4358 L56.1529,14.8378 L56.7999,14.8688 L56.8629,14.4278 L56.5539,13.8608 L56.5229,12.9478 L56.1119,12.9158 L55.2569,12.9478 L55.9989,13.2938 L55.5699,13.7028 L54.8889,13.4508 L54.6429,12.9148 L55.0399,12.8208 L54.6429,12.4118 L55.3799,12.4118 L56.0929,12.3798 L54.9829,11.4978 L54.3349,11.4978 L54.0879,12.0648 L53.6539,11.7498 L53.6539,11.0888 L53.4649,10.3328 L52.6949,9.3878 L51.7069,8.8528 L51.3099,8.3798 L50.9709,8.1908 L49.7039,8.1908 L49.1159,8.5688 L48.3749,8.5688 L47.9729,7.9068 L47.3859,7.6548 L48.4059,7.6548 L48.7779,7.3398 L48.7519,6.9298 L48.3139,7.1818 L47.5429,7.0558 L47.1059,6.6778 L47.7529,5.9848 L48.4639,5.4498 L48.7769,5.6068 L48.5589,4.8818 L48.0649,5.0398 L47.8179,4.5988 L48.5009,3.7798 L48.8709,3.7798 L48.8399,3.3388 L49.5229,2.6458 L49.8919,2.9298 L50.3849,2.6458 L49.9499,2.3308 L50.6629,2.3308 L50.4749,1.6378 L51.0629,1.3538 L50.8749,0.8808 L52.0489,0.3448 L52.4199,0.3448 L52.2689,0.7858 L52.7899,0.3448 L53.7169,0.3438 L53.6889,0.7868 L53.0709,1.3218 L53.5919,1.2898 L53.9369,1.1638 L54.1529,1.4478 L53.9989,0.8178 L54.6789,1.2268 L54.9889,0.7228 L54.7739,0.3428 L55.1739,-0.0002 L55.8849,0.5348 L55.6849,1.3538 L56.1639,1.0698 L56.4089,1.1638 L56.2559,1.6368 L56.7799,1.8258 L57.9559,3.1808 L58.5119,2.9608 L58.7299,3.3388 L59.2889,3.0548 L59.8769,3.3388 L59.1659,3.9058 L59.5639,4.2208 L60.1509,3.9368 L60.3379,4.2208 L60.9549,4.1578 L60.8609,4.9138 L61.3819,5.0088 L62.1239,4.8518 L61.6889,5.6708 L62.4599,5.6078 L62.3359,6.5218 L61.5939,6.4278 L61.6569,7.1518 L62.4279,7.2148 L62.6739,6.5848 L63.1399,6.7738 L63.3849,7.3098 L64.6559,7.7828 L65.0259,8.3818 L64.3789,8.5708 L63.2969,8.2558 L63.5179,8.6338 L64.0079,8.8548 L63.7919,9.7048 L64.4769,9.0438 L65.3369,8.9178 L65.3369,10.1748 L65.3419,10.1748 Z M46.8289,5.7488 L46.0559,5.9378 L46.4109,6.6628 L46.1329,7.1038 L45.4069,7.5608 L45.8089,8.0338 L45.2499,8.5218 L44.9369,8.4588 L44.7369,8.0338 L43.9779,8.2798 L43.2209,8.1908 L42.5279,8.0328 L42.7729,7.5768 L43.4849,7.5768 L43.1909,6.9938 L43.7319,6.9158 L43.9609,7.2748 L44.1609,7.1198 L44.1609,6.4428 L43.4789,6.6948 L43.3539,6.3168 L42.6139,6.6478 L41.9709,5.8288 L42.4649,5.6398 L41.8189,5.1988 L42.5119,4.0968 L43.0829,3.8448 L43.5169,4.6318 L43.9549,5.0408 L44.2949,4.5838 L43.6559,4.3628 L43.5519,3.4338 L44.7399,3.0088 L45.2579,3.2138 L45.6129,2.6778 L47.1129,2.2998 L48.5039,2.7568 L47.5619,3.8118 L48.2889,3.7328 L47.3689,4.8988 L46.8289,5.7488 Z M46.2969,11.4968 L45.4089,11.4968 L44.7629,11.9948 L45.5849,12.2438 L45.6059,11.7818 L46.4689,11.6548 L47.3179,12.5828 L48.0289,12.4248 L48.5839,12.8548 L49.8509,13.6248 L50.3829,14.7108 L49.8279,14.8468 L50.0709,15.3678 L50.7819,15.7748 L51.9809,16.0468 L52.1309,16.5218 L53.2709,16.5218 L52.9169,17.8348 L52.4729,18.6948 L51.6529,17.8118 L50.7909,17.2458 L50.5019,17.7438 L51.2569,18.6948 L52.0289,19.0108 L52.4509,20.1648 L52.0119,20.6288 L51.2569,20.1648 L50.3909,19.8478 L50.6799,20.4438 L51.7429,20.8208 L52.0969,21.4808 L50.4769,21.2508 L50.0539,20.6288 L49.1449,20.6288 L48.6319,19.9388 L47.6769,19.1008 L47.1139,19.1988 L46.7019,19.5308 L45.8149,19.5988 L45.8149,18.4438 L46.8129,18.4888 L47.3679,18.4438 L47.9269,18.1038 L47.5049,17.5608 L48.1519,17.1758 L48.3289,16.5648 L47.7079,15.6368 L46.5999,14.7088 L45.6459,13.9168 L44.9029,14.6188 L43.8159,14.0528 L42.7159,14.0998 L42.1889,13.7378 L41.4599,13.2168 L42.3039,13.0358 L42.0819,12.7418 L41.4599,12.7418 L41.4599,11.9268 L42.3039,10.7948 L43.4409,10.5278 L42.9389,11.0668 L42.8209,11.5878 L43.0619,12.2668 L43.4409,11.9498 L43.2629,11.3838 L43.6809,10.9088 L44.7909,10.7508 L46.0619,10.8868 L46.2969,11.4968 Z M44.6139,21.8978 L44.7269,21.2528 L45.1569,21.4368 L44.9539,21.8978 L44.6139,21.8978 Z M43.8009,20.8608 L43.2579,21.4828 L42.7149,21.2528 L42.8279,20.7688 L43.5289,20.6308 L43.8009,20.8608 Z M42.9299,18.2788 L43.2569,18.7398 L44.0049,19.0858 L43.8009,19.6158 L44.2079,19.5238 L44.5919,19.6388 L44.3889,20.1228 L43.6219,20.0538 L43.6219,19.7308 L43.0769,19.7768 L42.5799,20.1688 L41.9019,20.4458 L41.9019,19.8468 L41.2679,19.8468 L41.6539,19.4778 L42.0589,17.9568 L42.6019,17.9568 L42.5569,18.4178 L42.9299,18.2788 Z M44.0049,30.2648 L44.0049,30.6798 L43.2569,30.2648 L43.3489,30.0108 L44.0049,30.2648 Z M45.8099,16.1598 L46.6099,15.6168 L46.9409,15.9108 L47.1099,16.3178 L46.5029,16.6118 L45.8099,16.1598 Z M40.6419,76.0138 L40.5089,75.8608 L40.3849,76.0938 L40.0449,75.7948 L40.0449,75.2288 L39.1639,74.7548 L38.9939,74.3458 L38.7159,74.1908 L38.8399,74.5678 L38.1139,74.2898 L37.8659,73.8108 L37.9179,73.2998 L35.7969,70.8298 L32.3799,69.7458 L30.1199,67.3668 L29.3159,67.1308 L28.2959,67.6188 L27.5229,67.6188 L26.1479,67.0358 L25.3909,66.5148 L24.6179,66.2008 L23.3659,65.4298 L22.7019,64.7208 L22.1769,64.5958 L21.3729,64.2168 L20.8629,63.3818 L19.9359,62.7208 L19.5499,61.5858 L19.9209,61.5858 L19.8589,61.1758 L20.1369,60.6108 L19.9209,60.1268 L19.8129,59.3708 L19.2409,58.3918 L19.1019,57.8708 L18.2979,56.9408 L18.2049,56.4358 L17.8489,55.9968 L17.4009,55.7448 L17.2459,55.2408 L17.5859,54.9258 L17.4619,54.6128 L17.0759,54.4688 L17.1069,54.0288 L16.8439,53.9658 L16.6119,53.6538 L16.5969,53.0998 L16.3189,52.9428 L15.6239,51.4458 L15.3459,49.7958 L15.5159,49.2328 L15.2239,49.0998 L15.1159,48.6898 L14.7139,48.6428 L14.3889,48.2158 L14.0639,48.6898 L14.0179,50.0298 L14.5279,51.0088 L14.5429,51.3698 L14.9759,52.1868 L14.8709,52.7508 L15.1029,52.8148 L15.1799,53.2238 L15.5349,54.0748 L15.6119,54.9248 L15.7669,55.4608 L15.8909,56.8948 L16.2769,56.9938 L16.6479,57.6398 L16.6019,58.2428 L16.0769,58.4008 L15.8609,57.6198 L14.6249,55.9008 L14.8569,55.3968 L14.8419,54.6568 L14.3319,54.0738 L14.2549,53.7258 L13.9919,53.7258 L13.2039,52.9398 L12.9259,52.2928 L13.8989,52.6708 L13.7139,52.2758 L13.9299,51.8038 L13.5899,50.8118 L13.0489,50.2748 L12.7059,46.3528 L12.0879,45.2198 L11.7789,45.0618 L11.5779,44.5408 L10.8209,44.0838 L10.8519,43.6448 L10.4809,41.9158 L10.7439,41.5538 L10.5119,41.2258 L10.5429,40.5638 L10.8059,40.6908 L10.8059,40.1808 L10.6209,40.1808 L10.3429,39.0618 L10.6209,37.2978 L11.1619,36.4318 L11.5179,34.8728 L12.3829,33.8488 L14.0059,31.0298 L14.4169,28.8928 L14.0309,27.7898 L13.7529,26.2938 L14.0159,26.0258 L14.4489,26.7508 L15.0979,27.4908 L14.5259,26.3878 L14.4329,25.6158 L14.7879,25.0018 L14.5559,24.5768 L14.7719,24.0248 L14.4779,23.5048 L14.5859,22.8908 L14.9409,22.7338 L15.0959,22.4268 L15.1909,21.7338 L15.3079,21.1388 L14.9829,20.9338 L14.5189,21.5168 L14.4419,21.0128 L14.8749,20.0358 L14.8289,19.1848 L14.3609,19.3898 L14.8249,18.4918 L15.1189,17.5618 L15.3509,17.4518 L15.2119,17.2628 L15.0879,15.3888 L15.3659,15.1998 L14.8249,15.0108 L14.8409,14.4118 L14.0049,13.6558 L14.0669,13.2468 L13.9739,12.9948 L14.0359,12.2858 L13.7419,11.8768 L13.3399,11.7978 L12.9999,12.1918 L12.5669,12.4758 L12.2269,12.1298 L10.6819,12.2088 L10.8059,11.7678 L11.3009,11.8938 L11.3469,11.4998 L11.7949,11.3418 L12.3049,11.0578 L12.9079,11.0578 L13.2019,11.3098 L13.2949,10.8998 L12.8619,10.7578 L11.9189,10.7578 L11.2239,11.0728 L10.6679,11.0258 L10.0339,11.1198 L10.1269,11.4348 L9.9719,11.6868 L8.1489,11.7658 L7.7319,11.6718 L7.4229,11.8138 L6.8199,11.8928 L6.2949,11.6568 L5.6609,11.7358 L5.2899,11.4838 L5.2129,11.5938 L4.4559,11.4838 L4.2709,11.0748 L3.8069,11.1538 L3.7299,10.8068 L3.3589,10.8538 L3.1889,11.0588 L2.9259,10.7758 L2.4159,10.5238 L2.7709,10.3348 L3.3269,10.4448 L3.3269,10.6808 L3.9139,10.6488 L3.9139,10.8058 L4.1769,10.6638 L4.7019,10.6318 L5.1189,10.8838 L4.9029,11.0888 L5.0579,11.2148 L5.3359,10.9468 L6.0309,10.9468 L6.4169,11.2148 L6.6489,11.0728 L7.6069,10.9468 L8.4569,10.4588 L9.0909,10.3638 L8.5659,10.1278 L8.7049,9.8598 L8.1489,9.9698 L8.4269,9.4498 L8.2569,8.9618 L7.6849,8.7728 L8.2719,8.2848 L8.6739,8.2218 L9.1069,7.7488 L8.7819,7.5598 L8.6739,7.1498 L9.3229,6.2368 L9.6789,6.8038 L9.8489,6.6308 L9.7409,6.3318 L9.8489,5.7798 L10.2509,5.3388 L11.3019,5.0548 L11.5959,5.1648 L12.4769,4.8658 L12.5539,5.0228 L12.4149,5.2748 L12.5389,5.5108 L13.0949,5.5738 L13.2029,5.8578 L13.6049,5.8888 L14.3619,5.2118 L14.7479,5.3218 L14.9489,5.1638 L14.5939,4.9118 L14.2079,4.8648 L14.2389,4.4868 L13.9299,4.2188 L13.8529,3.7618 L14.3629,3.2418 L14.7339,3.2108 L14.7339,2.7538 L14.9499,2.4858 L15.7379,2.8638 L16.4179,3.0058 L16.5419,3.2738 L15.8779,3.6048 L16.0019,4.2348 L16.4189,4.3138 L17.2539,3.6208 L17.1299,3.2898 L17.7329,2.7698 L18.3669,1.8248 L18.9079,1.6358 L19.4639,2.2188 L20.9319,2.0768 L21.4269,2.4388 L21.3189,2.6908 L21.8439,2.3438 L22.2459,2.8478 L22.9409,2.9268 L22.9259,3.3998 L22.7099,3.6988 L22.9879,3.8718 L22.6329,4.6118 L22.8799,4.6908 L23.0649,4.9588 L23.1269,5.6988 L23.4519,5.9818 L23.4519,6.3758 L23.9929,6.8008 L23.9929,7.2468 L24.2329,7.6968 L24.3089,7.7378 L24.1239,8.1788 L24.6959,9.4868 L25.0819,9.1878 L27.0759,9.0618 L27.4309,9.2978 L27.0449,9.5178 L27.5709,9.6758 L28.1739,9.3138 L28.2819,9.6758 L27.9419,10.1328 L27.9569,10.6208 L28.8999,10.1168 L28.4359,10.9518 L29.2859,10.6838 L30.2289,12.2898 L30.7849,12.3848 L31.1099,12.6838 L31.2029,13.2188 L30.3219,13.3758 L31.3269,14.0218 L32.4089,14.0218 L32.9339,14.9828 L32.7019,15.5188 L33.0729,15.3928 L33.2889,14.3848 L34.2469,14.2118 L33.2719,14.1168 L33.4219,13.7698 L34.5239,13.6598 L34.3359,14.2268 L35.4819,15.1718 L37.1219,15.2818 L37.1369,14.8088 L37.6159,14.8088 L37.1059,14.1788 L37.7719,13.5168 L38.4839,14.0688 L38.6259,14.7148 L37.8639,14.9198 L38.1769,15.2038 L37.7399,15.6288 L38.2189,16.1168 L38.2499,15.5338 L38.5899,15.4548 L39.2239,15.0458 L39.0279,14.6838 L39.2559,14.2108 L38.7149,13.6908 L38.5139,13.3758 L38.8269,13.1398 L38.6839,12.7618 L39.6709,11.8328 L40.1349,12.2108 L40.1349,13.0138 L40.4889,13.5018 L40.1039,14.1008 L40.5829,14.2738 L40.5059,15.4708 L40.9229,14.6988 L41.4639,14.8408 L41.6159,15.4388 L41.3069,15.7538 L41.6759,16.5568 L42.1689,16.1158 L42.4459,15.4068 L42.8139,15.2658 L42.7219,14.4628 L43.0919,14.2268 L44.2799,14.8418 L44.3429,15.4398 L43.9239,15.5968 L44.2789,16.6358 L43.7989,17.1718 L42.8599,17.5808 L42.4129,17.3288 L41.9759,17.2188 L42.1189,17.6598 L41.3479,18.2738 L41.5179,18.6828 L40.5409,19.5338 L39.0879,19.7388 L39.4289,20.0068 L39.1359,20.4478 L38.3649,20.7628 L36.8209,22.1808 L36.4949,23.2518 L36.2479,23.7558 L36.4179,24.1808 L37.0999,24.1968 L37.2879,25.6138 L36.9939,26.0078 L38.3209,25.7878 L39.8189,27.0318 L40.5899,27.3468 L41.1479,27.9138 L42.9869,28.0718 L42.9869,30.2298 L44.0209,31.7258 L44.5619,32.1038 L44.7919,31.7108 L45.1459,32.1358 L45.1289,31.5528 L45.3449,31.0958 L45.0349,30.4978 L45.0979,29.6318 L44.8279,28.6398 L45.9559,28.0728 L46.5719,26.9548 L46.4189,25.6948 L45.5379,24.6548 L46.1099,23.8358 L45.7959,22.7648 L45.9509,22.1348 L45.6069,21.5358 L45.9309,21.0638 L46.6599,21.2848 L47.6379,21.4108 L47.9029,21.1268 L48.8769,21.8198 L49.3109,22.3868 L50.3459,22.5288 L50.3299,23.4268 L50.5159,24.3088 L51.2099,24.4668 L51.6739,25.0498 L52.5859,24.4668 L52.7099,23.9788 L52.9569,22.8758 L55.5589,25.6588 L55.3299,26.3358 L56.5819,27.0918 L56.8109,27.7378 L57.2899,27.3758 L57.6439,27.6908 L58.5819,27.8328 L58.1029,28.2898 L58.6629,28.1168 L58.9369,28.6048 L59.2129,28.4158 L59.6479,28.6048 L59.9609,29.3608 L60.3969,29.7868 L59.9339,30.7008 L60.7389,30.5658 L60.4239,31.5338 L60.3599,32.4788 L60.8369,31.9718 L61.2859,32.0638 L61.0149,32.4788 L61.4669,32.6178 L62.4169,32.2948 L62.5979,32.6868 L62.5079,33.2858 L63.0709,33.0778 L63.0709,33.6078 L62.7509,33.9998 L62.1419,35.1518 L61.5759,35.1518 L62.1249,34.4608 L61.6279,34.5758 L61.4869,34.2068 L60.8979,34.5068 L59.8599,34.6678 L59.0689,34.8528 L59.0689,34.3898 L59.3839,33.8598 L59.2259,33.3758 L59.3839,33.0998 L59.3839,32.2238 L59.9369,30.6988 L58.7619,31.0928 L58.3759,31.8178 L57.8349,32.3218 L55.1309,32.4478 L53.6779,32.7468 L53.2449,33.5658 L52.8429,33.5808 L52.1629,34.2898 L50.6639,36.4318 L51.1739,36.0698 L51.9459,34.9678 L53.7699,33.7388 L55.0369,33.5968 L55.5159,34.3058 L54.9229,34.9038 L54.0879,34.8728 L54.4019,35.1878 L55.1129,34.9828 L55.1749,35.7698 L56.0279,36.7618 L56.6439,36.9038 L58.0029,37.0458 L58.2969,37.2508 L57.1089,38.0858 L56.2129,38.2908 L55.4559,39.4878 L54.8069,39.1728 L54.6829,38.5268 L55.6709,37.5658 L55.5469,37.2668 L54.8359,37.7238 L54.2119,37.8368 L53.8659,38.3368 L51.6659,39.5198 L51.2639,40.8738 L51.8209,41.5358 L50.9609,41.9928 L50.0009,41.9298 L49.2899,42.3398 L50.5219,42.2458 L48.9609,42.7498 L49.0229,43.2858 L48.3429,44.4038 L47.8479,43.9628 L48.2809,44.9858 L47.8849,45.4428 L47.4469,46.2948 L47.3839,45.9338 L47.5849,45.4458 L47.2909,45.0998 L47.1979,43.9338 L46.7799,45.0038 L47.0589,45.2878 L47.1819,45.8548 L46.8579,46.2488 L47.3789,46.3908 L47.4429,46.8948 L47.6899,47.6348 L46.9319,48.1228 L47.1949,48.4218 L47.1489,48.6738 L46.4069,48.7368 L45.8029,49.4658 L45.2929,49.5668 L44.6589,50.0708 L43.5129,51.1878 L42.7259,52.2088 L42.7449,53.4688 L43.1619,54.5088 L43.2349,55.1118 L43.7759,56.4648 L43.8219,57.7088 L43.3009,58.5908 L42.8149,58.5908 L42.7379,58.1338 L42.2579,57.6298 L41.4499,56.0068 L41.5469,54.5898 L40.4019,53.4438 L39.4239,53.8388 L38.8369,53.0998 L37.9079,52.8478 L37.0249,53.0998 L35.6709,52.9868 L35.3309,53.5238 L35.8409,54.0048 L35.6549,54.1948 L35.0839,53.7658 L34.2029,54.0178 L33.4609,53.3608 L32.9359,53.5818 L32.0239,53.2038 L30.9579,53.4088 L29.7829,54.1648 L28.6389,54.7278 L28.1599,55.6918 L28.2189,56.5558 L27.4989,58.4658 L27.2049,60.0888 L27.4829,61.7578 L28.1939,63.3188 L28.5159,64.4528 L29.1959,64.5618 L29.7369,65.1618 L30.4169,65.0518 L32.2709,64.7838 L33.0439,64.5148 L33.6009,63.9008 L33.9549,62.4348 L35.6709,61.9648 L37.3099,62.0118 L37.3729,62.7838 L36.6899,63.4458 L36.6269,64.0908 L36.1809,65.5658 L35.8879,65.7138 L35.7539,67.6668 L35.9889,68.1538 L38.4069,68.0128 L40.2919,68.6438 L40.6459,69.4978 L39.8599,72.8378 L41.4969,75.3158 L41.8859,75.1798 L42.2399,75.5758 L44.1719,74.7098 L45.7009,75.0598 L47.0139,76.4468 L46.3339,77.9998 L45.3129,76.3758 L45.6999,76.0278 L45.3909,75.9508 L44.6739,75.2718 L44.1079,75.4288 L43.8129,75.9498 L43.3969,76.0918 L43.2719,76.2968 L43.7059,76.9588 L42.8559,77.2108 L42.7309,76.6598 L42.5769,76.4368 L42.4829,76.9118 L41.9119,76.2818 L41.4019,76.1378 L41.1249,76.1718 L40.6419,76.0138 Z M63.2039,33.6068 L63.4299,33.3988 L63.2709,34.1598 L63.6559,33.8368 L63.8419,34.9198 L63.3329,35.1608 L63.3329,34.7818 L62.9099,35.1608 L62.8189,34.9198 L63.2039,33.6068 Z M55.1099,33.0538 L54.9039,32.9608 L56.0709,32.9608 L57.0309,33.6068 L56.0809,33.6068 L55.1099,33.0538 Z M58.5229,37.0408 L57.8669,36.8798 L57.8669,36.3038 L58.0959,35.6358 L58.5939,35.6358 L58.5709,36.3498 L58.7979,36.2118 L59.0699,36.4428 L58.5229,37.0408 Z M13.2409,24.2308 L13.3329,22.0998 L13.7199,21.9028 L14.0509,22.2968 L13.4619,22.9158 L13.5169,23.6298 L13.2409,24.2308 Z M9.7969,12.5558 L9.3549,12.5548 L9.3549,12.2168 L9.7969,12.2168 L9.7969,12.5558 Z M9.0969,13.0998 L8.4159,13.0998 L7.8269,12.7618 L8.1219,12.3978 L8.6929,12.2178 L8.7669,12.5778 L9.0799,12.5778 L9.3559,12.7618 L9.0969,13.0998 Z M8.4529,5.7228 L8.9129,5.9478 L8.7099,6.3798 L8.3599,6.2858 L8.4529,5.7228 Z M11.9939,2.7198 L11.9939,2.2698 L12.3389,2.0818 L12.2649,2.4008 L12.3389,2.7198 L12.0999,3.4518 L11.6579,3.2458 L11.9939,2.7198 Z M30.0309,8.5368 L31.7459,7.6228 L32.0089,6.9928 L33.1059,7.1818 L33.1829,7.7488 L33.8779,7.8428 L33.8629,8.8508 L34.1079,8.9298 L33.7949,9.4498 L34.1079,9.3398 L34.6289,9.7958 L34.3569,10.0798 L34.7899,10.2368 L35.0989,9.6068 L35.4539,10.2048 L35.1289,11.0708 L35.4539,11.1498 L35.7319,10.2048 L35.9779,9.7008 L36.3959,9.8898 L36.2879,9.5118 L36.8439,9.2758 L37.2459,9.8118 L36.8119,10.2368 L36.4209,10.0008 L36.5659,10.6938 L36.0869,12.1898 L36.8129,13.1038 L36.6269,13.5448 L36.0549,13.2618 L36.2869,13.7658 L36.1939,14.0648 L35.2669,13.9388 L34.6479,13.7178 L34.6479,13.2298 L33.8299,13.4818 L32.6089,13.5608 L31.6349,13.1198 L31.7589,12.5058 L30.9709,12.0808 L30.9709,11.3718 L31.7749,11.3088 L32.7179,11.8598 L33.1349,11.7968 L32.6559,11.1988 L31.4509,10.8518 L31.3269,10.4108 L32.4549,10.3638 L31.9449,10.3008 L31.5899,9.7018 L32.7029,8.7248 L30.8019,9.8118 L30.0289,9.6068 L30.1829,9.1818 L30.0309,8.5368 Z M34.6049,5.5828 L35.6259,5.2608 L36.5069,5.5688 L35.7799,6.2688 L35.5319,5.9188 L35.0089,6.2688 L34.6549,6.1588 L34.1899,6.4178 L33.7699,5.8748 L34.6049,5.5828 Z M37.1099,7.5608 L36.9599,6.9938 L37.3769,6.6948 L37.6899,6.8158 L37.5019,7.5768 L38.0379,7.7188 L37.3709,8.5258 L36.6589,8.1218 L36.2269,8.3318 L35.2169,8.3008 L34.7739,7.9538 L35.6339,7.7968 L35.4639,7.5448 L34.8309,7.6398 L34.4769,6.9938 L35.2329,7.1068 L35.3749,6.6008 L35.9329,6.4188 L36.3669,6.8158 L36.3509,7.3728 L36.7379,7.7188 L37.1099,7.5608 Z M37.2479,5.4818 L38.2219,5.5698 L37.7749,6.0848 L37.1709,5.9538 L37.2479,5.4818 Z M38.6229,9.7808 L39.5039,9.8598 L39.5969,10.2058 L39.0409,10.8228 L39.3349,11.2458 L39.0409,11.8758 L38.4689,11.8758 L38.4069,12.1598 L38.0509,12.0648 L37.9739,11.4908 L37.3709,10.7268 L37.5869,10.3648 L38.0659,10.8248 L38.3529,10.4278 L38.0039,10.1288 L38.6229,9.7808 Z M38.8229,7.1058 L38.9629,7.9068 L39.2879,7.5128 L39.5959,7.9068 L39.7369,7.5128 L40.2979,7.6708 L40.2979,7.9698 L39.8499,8.2528 L39.9579,8.4578 L39.6039,8.9928 L39.0339,8.8038 L39.3889,8.2048 L38.7849,8.2048 L38.4919,7.5058 L38.8229,7.1058 Z M39.7359,5.4128 L39.7359,4.8348 L40.1539,4.7718 L40.2459,5.2598 L40.6199,5.8268 L40.4769,6.4098 L40.1519,6.4098 L40.0879,5.8898 L39.5929,5.8268 L39.7359,5.4128 Z M40.1539,9.0888 L40.5389,8.6638 L40.9879,8.7268 L41.0799,9.0898 L40.9249,9.5298 L40.5229,9.5298 L40.1539,9.0888 Z M40.4309,11.4348 L40.0449,11.7818 L39.7359,11.5298 L39.8389,10.8238 L40.0859,10.2228 L40.6479,9.8608 L41.1119,10.1918 L41.6789,10.1918 L41.8219,10.4118 L40.9409,11.3408 L40.2299,11.2468 L40.4309,11.4348 Z M40.8479,7.3238 L41.5899,7.3238 L41.7139,7.7968 L42.1939,7.8288 L42.4709,8.2698 L42.2239,8.6098 L42.7349,9.0898 L43.4289,9.0898 L44.2799,8.7118 L45.0689,8.9948 L45.2559,9.3098 L44.7709,9.9238 L44.0659,9.9238 L43.1269,9.8608 L42.4629,9.7818 L42.4629,9.5418 L41.9429,9.7818 L41.4019,9.4038 L41.6629,8.7108 L41.6179,8.2378 L41.5889,7.9068 L41.1869,8.1428 L40.7229,7.6388 L40.8479,7.3238 Z M41.8209,6.8358 L41.5899,7.1038 L41.2189,6.8358 L41.8209,6.8358 Z M40.9409,5.6858 L41.3019,5.6228 L41.6979,6.1748 L41.6979,6.5998 L40.9399,6.4898 L40.9409,5.6858 Z M45.4619,61.5648 L46.4069,62.1638 L46.7189,62.5568 L47.9869,62.6948 L48.1889,63.2068 L48.7319,63.2068 L49.3879,63.7138 L47.9409,64.0798 L46.2009,64.0798 L46.5169,63.5238 L46.4099,63.1748 L45.7009,63.1748 L45.1809,62.7628 L45.1809,62.2788 L44.0739,62.2788 L43.3329,61.6098 L42.0199,61.6098 L42.2679,61.1508 L41.0909,61.1508 L40.6389,61.5648 L40.2359,61.5648 L40.0749,61.8878 L39.4209,61.9998 L39.7599,61.1468 L40.7999,60.6638 L42.1549,60.6638 L44.0319,60.9178 L44.5949,61.3788 L45.4619,61.5648 Z M45.5659,58.4298 L45.9049,58.9138 L46.0559,59.6058 L46.2439,59.6978 L46.2439,60.2508 L45.8069,59.8818 L45.9209,59.4898 L45.5629,59.2128 L45.5629,58.4298 L45.5659,58.4298 Z M50.7439,65.5038 L51.2869,65.2988 L50.9249,64.9528 L50.7439,64.3308 L50.0199,64.2158 L50.6709,63.8478 L51.5749,64.1228 L52.2539,63.9618 L53.3389,64.0768 L53.9029,64.6758 L54.5839,64.6088 L55.0629,65.1838 L54.8149,65.6668 L54.5439,65.5028 L53.6869,65.2858 L53.2099,65.7118 L52.9159,65.5018 L52.5989,65.5978 L52.1049,66.2438 L51.6529,65.6218 L50.9259,65.6678 L50.0439,65.6218 L49.7299,66.0158 L49.2089,65.5038 L49.8189,65.2988 L50.7439,65.5038 Z M48.2209,65.3298 C48.1669,65.2348 48.0969,65.1488 48.0139,65.0738 C48.1259,65.0668 48.2279,65.0348 48.3379,65.0068 C48.2769,65.1158 48.2379,65.2308 48.2209,65.3298 Z M47.0119,66.1058 L45.9269,66.2428 L45.8099,65.9198 L45.4759,65.6578 L46.6969,65.5018 L47.3529,65.8218 L47.0119,66.1058 Z M41.3599,62.3688 L40.8839,62.3688 L41.0879,61.9098 L41.4729,62.0258 L41.3599,62.3688 Z M56.1709,65.1838 L57.8899,65.3458 L57.5299,65.7838 L56.0809,65.7838 L56.1709,65.1838 Z M1.3809,10.4338 L0.9569,10.4338 L0.7549,10.2038 L1.1969,10.2038 L1.4549,9.7588 L1.6389,9.9658 L1.3809,10.4338 Z M-0.0001,9.7588 L0.6629,9.5148 L0.9389,9.6278 L0.7549,9.8348 L-0.0001,9.7588 Z" id="Fill-1" fill="#000000" mask="url(#mask-2)"></path>
                </g>
            </g>
        </g>
    </g>
</svg>