<?xml version="1.0" encoding="UTF-8"?>
<svg width="101px" height="27px" viewBox="0 0 101 27" version="1.1" xmlns="http://www.w3.org/2000/svg" xmlns:xlink="http://www.w3.org/1999/xlink">
    <!-- Generator: Sketch 51.1 (57501) - http://www.bohemiancoding.com/sketch -->
    <title>rutgers</title>
    <desc>Created with Sketch.</desc>
    <defs></defs>
    <g id="Page-2" stroke="none" stroke-width="1" fill="none" fill-rule="evenodd">
        <g id="Option-1" transform="translate(-43.000000, -18.000000)" fill="#D02139">
            <g id="rutgers" transform="translate(43.000000, 18.000000)">
                <path d="M95.8583349,9.14429998 C94.571887,8.40326991 93.5481386,7.66090062 93.5481386,6.2926734 C93.5481386,4.73918866 94.7612323,3.76558228 96.1444159,3.76558228 C98.8342197,3.76558228 99.2156611,5.78332682 99.4526866,6.94219073 L100.049147,6.94219073 C99.9932147,6.26678199 99.934073,4.56687685 99.8102879,3.74147648 C99.1913626,3.37140785 98.001192,3 96.5249404,3 C94.0006418,3 91.5712452,4.1829697 91.5712452,7.0118297 C91.5712452,8.75012555 92.8333945,10.1879917 94.1904456,10.907148 L95.7148359,11.7187099 C97.5729873,12.5298253 99.0253989,13.6895821 99.0253989,15.3823447 C99.0253989,17.190726 97.8100128,18.2339713 96.1673391,18.2339713 C92.9044563,18.2339713 92.0237484,15.4756431 91.7619659,13.805647 L91,13.9913509 C91.2695764,15.5814408 91.5350266,17.1965292 91.7619659,18.0723732 C92.4996332,18.5129736 93.6421236,19 95.5007335,19 C98.0241152,19 101,17.7933709 101,14.6640812 C101,11.880308 99.0496974,10.907148 97.1663305,9.86390268 L95.8583349,9.14429998" id="Fill-6"></path>
                <path d="M4.5395961,9.92928034 C5.26162923,9.96672032 6.03630588,9.90853048 6.75879283,9.90853048 C9.5493533,9.90853048 11.2552757,8.41995313 11.2552757,5.64759059 C11.2552757,2.63254484 9.52484683,0.781747003 6.43158611,0.781747003 C5.79396415,0.781747003 5.16587248,0.904441863 4.54322668,1.02803889 L4.5395961,9.92928034 Z M10.5595643,9.9247695 C10.827774,11.4101893 12.9094622,15.2236538 13.7077377,16.6409598 C15.5135012,19.9510146 20.13887,26.6451018 23.6006354,26.4294836 L24,26.4312879 L23.9959156,26.9743931 L23.3891536,26.995143 C18.4969367,27.1850494 14.1257091,21.7679811 11.5820286,17.4244928 C10.5482187,15.6580477 9.54572271,13.6074196 8.65123667,11.7674478 C8.43022464,11.2920052 8.14976174,10.9893278 7.83662355,10.7994215 C7.35420921,10.5454611 6.72475607,10.5495209 6.20512821,10.5495209 C5.9033356,10.5468144 5.00612662,10.5495209 4.5395961,10.5495209 L4.5377808,14.4532022 C4.5377808,15.1708769 4.48286816,16.9490502 4.6789199,17.6482305 C4.83321988,18.1990041 5.16859542,18.2702754 5.72407533,18.3284653 L6.68255049,18.407405 L6.68255049,18.8494673 L0,18.8494673 L0,18.407405 L0.9593828,18.3284653 C1.52756978,18.2702754 1.87156796,18.2008085 2.03040617,17.6482305 C2.22963467,16.9558165 2.17517586,15.1668172 2.17517586,14.4532022 L2.17517586,4.40981597 C2.17517586,3.69800535 2.22963467,1.90855495 2.03040617,1.21614094 C1.87156796,0.664014067 1.52756978,0.59409604 0.9593828,0.535906199 L0,0.457417575 L0,0.0149041271 L4.55638757,0.0158062951 C8.56637168,0.0167084632 13.9791241,-0.552108517 13.9791241,5.05351291 C13.9791241,7.32156348 12.4275017,8.79886373 10.5309735,9.72539036 C10.5386885,9.8174115 10.5595643,9.9247695 10.5595643,9.9247695 Z" id="Fill-8"></path>
                <path d="M29.5863252,18.85808 L30.2758201,18.6445154 L30.2758201,6.68809537 C30.2758201,3.79447835 30.2758201,3.67537505 31.1724291,3.58045748 L32,3.50972563 L32,3 L26.4145599,3 L26.4145599,3.50972563 L27.2408032,3.58045748 C28.1382973,3.67537505 28.1382973,3.79447835 28.1382973,6.68809537 L28.1382973,16.3194912 C27.7935498,16.7470766 26.3685346,18.21693 23.9769873,18.21693 C20.4144493,18.21693 19.8625878,15.9640066 19.8625878,12.571616 L19.8625878,6.68809537 C19.8625878,3.79402202 19.8625878,3.67537505 20.7591968,3.58045748 L21.5867677,3.50972563 L21.5867677,3 L16,3 L16,3.50972563 L16.8280135,3.58045748 C17.7241799,3.67537505 17.7241799,3.79402202 17.7241799,6.68809537 L17.7241799,12.9512863 C17.7241799,16.1771148 18.1149527,19 22.8737069,19 C25.9317365,19 27.8395752,17.5059609 28.1608674,17.5059609 C28.5056149,17.5055045 28.6901588,17.8381724 29.0110085,18.1694712 L29.5863252,18.85808" id="Fill-1"></path>
                <path d="M36.3689356,19 L42.6319349,19 L42.6319349,18.477292 L41.8175578,18.4054196 C40.551813,18.3083452 40.551813,18.187469 40.551813,15.227168 L40.551813,3.67858705 L41.7270231,3.67858705 C44.9153246,3.67858705 44.9601567,4.04261587 45.4576623,6.85683867 L46,6.85683867 C46,6.75929761 45.8872669,3.53344223 45.7967322,3 L33.2032678,3 C33.1122979,3.53344223 33,6.75929761 33,6.85683867 L33.5423377,6.85683867 C34.039408,4.04261587 34.0846754,3.67858705 37.2729769,3.67858705 L38.4494928,3.67858705 L38.4494928,15.227168 C38.4494928,18.187469 38.4494928,18.3083452 37.2059464,18.4054196 L36.3689356,18.477292 L36.3689356,19" id="Fill-2"></path>
                <path d="M61.6523188,15.5997433 C61.6523188,13.3427264 61.6523188,13.2266615 62.1178985,13.1333631 L63,13.0632777 L63,12.5650912 L56.7757599,12.5650912 L56.7757599,13.0632777 L57.6583331,13.1333631 C59.3725346,13.2266615 59.3725346,13.3427264 59.3725346,16.1818537 L59.3725346,17.9326488 C58.5154338,18.1411194 57.3889855,18.2339713 56.5064123,18.2339713 C51.704384,18.2339713 49.5727174,14.5605156 49.5727174,10.606272 C49.5727174,6.26990681 52.0963767,3.76558228 56.1134762,3.76558228 C60.3041658,3.76558228 60.6225714,6.59444227 60.8683334,7.52206908 L61.5296736,7.38279114 C61.4216516,6.23910496 61.2924025,4.94007031 61.1372092,3.9508398 C60.500398,3.58032476 58.6385507,3 56.1394204,3 C52.2671364,3 47,4.85525361 47,11.046426 C47,16.9559176 51.4100357,19 56.3356526,19 C58.9569563,19 60.8320116,18.3330729 61.69949,18.075498 C61.69949,18.075498 61.6523188,16.2979186 61.6523188,15.5997433" id="Fill-3"></path>
                <path d="M63,19 L74.1940088,19 C74.5139586,17.6876294 74.7863864,16.4784004 75,14.975148 L74.3902133,14.8780737 C73.8999373,16.8666978 73.6566813,18.3209462 69.7636449,18.3209462 C68.886606,18.3209462 67.9846299,18.1758014 67.1066499,18.0059213 L67.1066499,11.0240352 L69.2766625,11.0240352 C71.1784818,11.0240352 71.6179423,11.0483038 71.7633312,12.0423825 L71.8870765,12.8656477 L72.5316813,12.8656477 L72.5316813,8.50290231 L71.8870765,8.50290231 L71.7633312,9.3271009 C71.6179423,10.3211796 71.1784818,10.3449815 69.2766625,10.3449815 L67.1066499,10.3449815 L67.1066499,3.67858705 L69.1303325,3.67858705 C72.5806148,3.67858705 72.6295483,4.04214917 73.1682873,6.63655456 L73.7545483,6.53901351 C73.7545483,6.32106292 73.631744,3.53344223 73.533877,3 L63,3 L63,3.52130794 L63.8803325,3.593647 C64.8331242,3.69072135 64.8331242,3.81253099 64.8331242,6.77469883 L64.8331242,15.2220342 C64.8331242,18.1870023 64.8331242,18.3083452 63.8803325,18.4054196 L63,18.477292 L63,19" id="Fill-4"></path>
                <path d="M81.0015062,3.99361199 C81.4773412,3.89653764 81.9779306,3.79992999 82.4771447,3.79992999 C84.3346431,3.79992999 86.1660118,4.67266575 86.1660118,7.50882362 C86.1660118,10.2479071 84.3575639,11.3385935 82.3579568,11.3385935 L81.0015062,11.3385935 L81.0015062,3.99361199 Z M77,19 L82.7627374,19 L82.7627374,18.477292 L81.9050426,18.4054196 C81.0015062,18.3083452 81.0015062,18.1870023 81.0015062,15.2243678 L81.0015062,12.0176472 L81.8821218,12.0176472 C82.3822528,12.0176472 82.9763589,12.0176472 83.3586771,12.3336056 C83.6681074,12.6010267 84.2140799,13.5241665 84.8329404,14.7142607 L85.7855272,16.5843421 C86.5001965,17.9195811 87.5948919,19 89.1663392,19 L91,19 L91,18.477292 C90.475573,18.477292 90.0474132,18.3820844 89.8090373,18.2360062 C89.2144728,17.8957792 88.1660773,16.4625325 87.1671906,14.6409882 C86.5235756,13.4751626 85.7364768,11.9201062 85.3789129,11.2415191 C86.6895219,10.6110025 88.6657498,9.27529679 88.6657498,7.01738471 C88.6657498,3.33182627 85.4747217,3 83.2151932,3 L77,3 L77,3.52130794 L77.8576948,3.593647 C78.7859856,3.69072135 78.7859856,3.81253099 78.7859856,6.77469883 L78.7859856,15.2243678 C78.7859856,18.1870023 78.7859856,18.3083452 77.8576948,18.4054196 L77,18.477292 L77,19 Z" id="Fill-5"></path>
            </g>
        </g>
    </g>
</svg>