<?xml version="1.0" encoding="UTF-8"?>
<svg width="656px" height="611px" viewBox="0 0 656 611" version="1.1" xmlns="http://www.w3.org/2000/svg" xmlns:xlink="http://www.w3.org/1999/xlink">
    <!-- Generator: Sketch 51.1 (57501) - http://www.bohemiancoding.com/sketch -->
    <title>terrain</title>
    <desc>Created with Sketch.</desc>
    <defs></defs>
    <g id="Page-2" stroke="none" stroke-width="1" fill="none" fill-rule="evenodd">
        <g id="Option-1" transform="translate(0.000000, -773.000000)" stroke="#FEFEFE">
            <g id="terrain" transform="translate(-203.000000, 774.000000)">
                <path d="M476.84024,128.717415 C490.698381,162.540573 457.680427,207.325187 403.094577,228.742593 C348.504842,250.1638 293.017901,240.106931 279.15976,206.279972 C265.301619,172.460614 298.319573,127.676001 352.905423,106.254794 C407.495158,84.8373876 462.982099,94.8942566 476.84024,128.717415 Z" id="Stroke-1"></path>
                <path d="M580.656573,112.318706 C605.39494,172.648344 541.882446,254.322412 438.795557,294.7359 C335.708669,335.156985 232.081794,319.012862 207.343427,258.683225 C182.60506,198.349788 246.117554,116.679519 349.204443,76.2622321 C452.295216,35.8449454 555.918206,51.9852698 580.656573,112.318706 Z" id="Stroke-3"></path>
                <path d="M758.211221,129.687007 C805.613687,244.856796 692.391509,397.46301 505.329456,470.534794 C318.26352,543.610361 128.191478,509.480935 80.7890123,394.314929 C33.3865466,279.141357 146.60484,126.538927 333.670777,53.4633594 C520.736714,-19.6084247 710.808756,14.5172185 758.211221,129.687007 Z" id="Stroke-7"></path>
                <path d="M844.647576,141.891518 C903.07003,284.047445 764.335641,472.091305 534.779726,561.899733 C305.223811,651.704371 71.7709935,609.269879 13.3524243,467.110161 C-45.0700301,324.954235 93.6643586,136.910374 323.220274,47.1019461 C552.776189,-42.7064822 786.225121,-0.268199545 844.647576,141.891518 Z" id="Stroke-9"></path>
            </g>
        </g>
    </g>
</svg>